<svg xmlns="http://www.w3.org/2000/svg" version="1.1" xmlns:xlink="http://www.w3.org/1999/xlink" xmlns:svgjs="http://svgjs.dev/svgjs" width="2000" height="2000" viewBox="0 0 2000 2000"><g transform="matrix(1,0,0,1,-0.28443113772425477,-0.28443113772459583)"><svg viewBox="0 0 334 334" data-background-color="#ffffff" preserveAspectRatio="xMidYMid meet" height="2000" width="2000" xmlns="http://www.w3.org/2000/svg" xmlns:xlink="http://www.w3.org/1999/xlink"><g id="tight-bounds" transform="matrix(1,0,0,1,0.04749999999998522,0.04750000000001364)"><svg viewBox="0 0 333.90454557049503 333.90454557049503" height="333.90454557049503" width="333.90454557049503"><g><svg></svg></g><g><svg viewBox="0 0 333.90454557049503 333.90454557049503" height="333.90454557049503" width="333.90454557049503"><g><path d="M0 166.952c0-92.205 74.747-166.952 166.952-166.952 92.205 0 166.952 74.747 166.953 166.952 0 92.205-74.747 166.952-166.953 166.953-92.205 0-166.952-74.747-166.952-166.953zM166.952 329.282c89.652 0 162.33-72.678 162.33-162.33 0-89.652-72.678-162.33-162.33-162.33-89.652 0-162.33 72.678-162.33 162.33 0 89.652 72.678 162.33 162.33 162.33z" data-fill-palette-color="tertiary" fill="#b81d33" stroke="transparent"></path><ellipse rx="160.27418187383762" ry="160.27418187383762" cx="166.95227278524752" cy="166.95227278524752" fill="#b81d33" stroke="transparent" stroke-width="0" fill-opacity="1" data-fill-palette-color="tertiary"></ellipse></g><g transform="matrix(1,0,0,1,65.7248481659064,71.17305217166896)"><svg viewBox="0 0 202.45484923868224 191.55844122715712" height="191.55844122715712" width="202.45484923868224"><g><svg viewBox="0 0 213.1584412271571 201.68595066718282" height="191.55844122715712" width="202.45484923868224"><g transform="matrix(1,0,0,1,0,147.72273573572906)"><svg viewBox="0 0 213.1584412271571 53.963214931453756" height="53.963214931453756" width="213.1584412271571"><g id="textblocktransform"><svg viewBox="0 0 213.1584412271571 53.963214931453756" height="53.963214931453756" width="213.1584412271571" id="textblock"><g><svg viewBox="0 0 213.1584412271571 53.963214931453756" height="53.963214931453756" width="213.1584412271571"><g transform="matrix(1,0,0,1,0,0)"><svg width="213.1584412271571" viewBox="0.75 -35.55 142.39 36.05" height="53.963214931453756" data-palette-color="#ffffff"><path d="M0.75-34.05L0.75-35 15.45-35Q23-35 26.7-32.83 30.4-30.65 30.4-25.05L30.4-25.05Q30.4-18.85 25.9-16.5L25.9-16.5Q21.7-14.35 14.15-14.35L14.15-14.35 13.75-14.35 13.75-0.95 20-0.95 20 0 0.75 0 0.75-0.95 4-0.95 4-34.05 0.75-34.05ZM15.1-34.05L13.75-34.05 13.75-15.3 14.8-15.3Q17.8-15.3 18.95-17.35 20.1-19.4 20.1-24L20.1-24 20.1-26.4Q20.1-30.65 19.03-32.35 17.95-34.05 15.1-34.05L15.1-34.05ZM60.9-19.65L60.9-19.65Q60.9-9.95 56.67-4.73 52.45 0.5 44.95 0.5L44.95 0.5Q39.7 0.5 36.72-1.5 33.75-3.5 33.75-6.7L33.75-6.7Q33.75-8.7 34.97-10.18 36.2-11.65 38.22-11.65 40.25-11.65 41.42-10.58 42.6-9.5 42.6-8.03 42.6-6.55 42.2-5.45L42.2-5.45 40.7-5.45Q40.35-4.7 40.35-3.53 40.35-2.35 41.42-1.43 42.5-0.5 44.6-0.5L44.6-0.5Q47.95-0.5 49.47-4.15 51-7.8 51.05-16.85L51.05-16.85Q48.45-12.8 43.15-12.8L43.15-12.8Q38.65-12.8 35.75-15.7 32.85-18.6 32.85-23.65L32.85-23.65Q32.85-29.65 36.82-32.6 40.8-35.55 47-35.55L47-35.55Q60.9-35.55 60.9-19.65ZM46.05-14.45Q47.75-14.45 48.92-15.73 50.1-17 50.52-18.73 50.95-20.45 50.95-23.23 50.95-26 50.92-27.08 50.9-28.15 50.8-29.63 50.7-31.1 50.45-31.78 50.2-32.45 49.8-33.2L49.8-33.2Q49.05-34.5 47.05-34.5L47.05-34.5Q44.8-34.5 43.7-32.7L43.7-32.7Q42.85-31.25 42.7-27.7L42.7-27.7Q42.65-26.45 42.65-24.33 42.65-22.2 42.67-21.05 42.7-19.9 42.8-18.63 42.9-17.35 43.12-16.7 43.35-16.05 43.7-15.45L43.7-15.45Q44.35-14.45 46.05-14.45ZM64.09-27.9Q64.09-31.2 67.09-33.38 70.09-35.55 76-35.55L76-35.55Q87.4-35.55 87.4-27.6L87.4-27.6Q87.4-24.35 84.72-22.23 82.05-20.1 77.05-19.25L77.05-19.25 77.05-19.15Q83.25-18.7 86.2-16.25 89.15-13.8 89.15-9.9L89.15-9.9Q89.15-5.1 85.27-2.3 81.4 0.5 74.5 0.5L74.5 0.5Q71.8 0.5 69.47-0.1 67.15-0.7 65.32-2.48 63.5-4.25 63.5-6.7 63.5-9.15 64.67-10.5 65.84-11.85 67.9-11.85 69.95-11.85 71.15-10.78 72.34-9.7 72.34-8.22 72.34-6.75 71.95-5.7L71.95-5.7 70.4-5.7Q70.09-4.9 70.09-4.05L70.09-4.05Q70.09-0.5 74.3-0.5L74.3-0.5Q77.25-0.5 78.32-2.75 79.4-5 79.4-9.25 79.4-13.5 78.37-15.43 77.34-17.35 75.34-18.35L75.34-18.35Q73.55-17.95 71-17.7L71-17.7 70.84-18.8Q75.25-19.25 76.62-20.9 78-22.55 78-26.78 78-31 77.17-32.83 76.34-34.65 74.4-34.65 72.45-34.65 71.62-33.48 70.8-32.3 70.8-31.25 70.8-30.2 71.09-29.4L71.09-29.4 72.55-29.4Q72.95-28.35 72.95-26.88 72.95-25.4 71.7-24.33 70.45-23.25 68.4-23.25 66.34-23.25 65.22-24.58 64.09-25.9 64.09-27.9L64.09-27.9ZM106.04-11.7Q106.04-16.45 105.22-18.35 104.39-20.25 101.49-20.25 98.59-20.25 95.14-18.1L95.14-18.1 94.29-18.5 94.29-34.45 95.09-35.05Q98.14-34.6 104.34-33.98 110.54-33.35 111.52-33.35 112.49-33.35 112.92-33.83 113.34-34.3 113.64-35.45L113.64-35.45 114.39-35.35Q113.64-27.7 112.44-26.25L112.44-26.25Q111.79-25.5 110.79-25.5 109.79-25.5 106.59-26.35L106.59-26.35 95.69-29.2 95.44-19.5Q99.09-21.45 102.99-21.45 106.89-21.45 109.49-20.58 112.09-19.7 113.49-18.15L113.49-18.15Q116.14-15.2 116.14-11L116.14-11Q116.14-5.65 112.32-2.58 108.49 0.5 101.79 0.5L101.79 0.5Q98.19 0.5 95.14-1L95.14-1Q93.49-1.85 92.47-3.43 91.44-5 91.44-7.08 91.44-9.15 92.62-10.5 93.79-11.85 95.87-11.85 97.94-11.85 99.12-10.83 100.29-9.8 100.29-8.18 100.29-6.55 99.84-5.4L99.84-5.4 98.19-5.4Q97.89-4.6 97.89-3.53 97.89-2.45 98.74-1.48 99.59-0.5 101.24-0.5 102.89-0.5 103.74-1.03 104.59-1.55 105.04-2.3 105.49-3.05 105.74-4.65L105.74-4.65Q106.04-6.95 106.04-11.7ZM133.04-11.7Q133.04-16.45 132.22-18.35 131.39-20.25 128.49-20.25 125.59-20.25 122.14-18.1L122.14-18.1 121.29-18.5 121.29-34.45 122.09-35.05Q125.14-34.6 131.34-33.98 137.54-33.35 138.52-33.35 139.49-33.35 139.92-33.83 140.34-34.3 140.64-35.45L140.64-35.45 141.39-35.35Q140.64-27.7 139.44-26.25L139.44-26.25Q138.79-25.5 137.79-25.5 136.79-25.5 133.59-26.35L133.59-26.35 122.69-29.2 122.44-19.5Q126.09-21.45 129.99-21.45 133.89-21.45 136.49-20.58 139.09-19.7 140.49-18.15L140.49-18.15Q143.14-15.2 143.14-11L143.14-11Q143.14-5.65 139.32-2.58 135.49 0.5 128.79 0.5L128.79 0.5Q125.19 0.5 122.14-1L122.14-1Q120.49-1.85 119.47-3.43 118.44-5 118.44-7.08 118.44-9.15 119.62-10.5 120.79-11.85 122.87-11.85 124.94-11.85 126.12-10.83 127.29-9.8 127.29-8.18 127.29-6.55 126.84-5.4L126.84-5.4 125.19-5.4Q124.89-4.6 124.89-3.53 124.89-2.45 125.74-1.48 126.59-0.5 128.24-0.5 129.89-0.5 130.74-1.03 131.59-1.55 132.04-2.3 132.49-3.05 132.74-4.65L132.74-4.65Q133.04-6.95 133.04-11.7Z" opacity="1" transform="matrix(1,0,0,1,0,0)" fill="#ffffff" class="wordmark-text-0" data-fill-palette-color="quaternary" id="text-0"></path></svg></g></svg></g></svg></g></svg></g><g transform="matrix(1,0,0,1,45.457272673871906,0)"><svg viewBox="0 0 122.2438958794133 122.2438958794133" height="122.2438958794133" width="122.2438958794133"><g><svg></svg></g><g id="icon-0"><svg viewBox="0 0 122.2438958794133 122.2438958794133" height="122.2438958794133" width="122.2438958794133"><g><path d="M0 61.122c0-33.757 27.365-61.122 61.122-61.122 33.757 0 61.122 27.365 61.122 61.122 0 33.757-27.365 61.122-61.122 61.122-33.757 0-61.122-27.365-61.122-61.122zM61.122 117.377c31.069 0 56.255-25.186 56.255-56.255 0-31.069-25.186-56.255-56.255-56.256-31.069 0-56.255 25.186-56.256 56.256 0 31.069 25.186 56.255 56.256 56.255z" data-fill-palette-color="quaternary" fill="#ffffff" stroke="transparent"></path></g><g transform="matrix(1,0,0,1,30.73931255595737,26.000736395189136)"><svg viewBox="0 0 60.76527076749856 70.24242308903503" height="70.24242308903503" width="60.76527076749856"><g><svg xmlns="http://www.w3.org/2000/svg" xmlns:xlink="http://www.w3.org/1999/xlink" version="1.1" x="0" y="0" viewBox="17.3 12.2 65.4 75.6" style="enable-background:new 0 0 100 100;" xml:space="preserve" height="70.24242308903503" width="60.76527076749856" class="icon-dxe-0" data-fill-palette-color="quaternary" id="dxe-0"><path d="M50 12.2L17.3 31.1V68.9L50 87.8 82.7 68.9V31.1zM32.1 37.4L50 16 67 37.4zM67.3 39.4L50 70.4 31.8 39.4zM48.1 71L20.4 66.5 30.2 40.6zM68.9 40.7L79.6 66.6 51.9 71.1zM69.2 37.1L52.6 16 79.6 31.6zM29.8 37.1L20.4 31.6 47.2 16.1zM28.8 38.8L19.3 63.8V33.3zM49 73.2V84.9L20.9 68.7zM51 73.2L79.1 68.7 51 84.9zM70.3 38.8L80.8 33.2V64.1z" fill="#ffffff" data-fill-palette-color="quaternary"></path></svg></g></svg></g></svg></g></svg></g><g></g></svg></g></svg></g></svg></g><defs></defs></svg><rect width="333.90454557049503" height="333.90454557049503" fill="none" stroke="none" visibility="hidden"></rect></g></svg></g></svg>